<?xml version="1.0" encoding="UTF-8" standalone="no"?>
<svg width="316px" height="31px" viewBox="0 0 316 31" version="1.1" xmlns="http://www.w3.org/2000/svg" xmlns:xlink="http://www.w3.org/1999/xlink" xmlns:sketch="http://www.bohemiancoding.com/sketch/ns">
    <!-- Generator: Sketch 3.3.3 (12072) - http://www.bohemiancoding.com/sketch -->
    <title>btc-logo</title>
    <desc>Created with Sketch.</desc>
    <defs></defs>
    <g id="Colors" stroke="none" stroke-width="1" fill="none" fill-rule="evenodd" sketch:type="MSPage">
        <g id="Group" sketch:type="MSLayerGroup" fill="#62BEBC">
            <rect id="Rectangle-4-Copy" sketch:type="MSShapeGroup" x="128.941452" y="27.1659354" width="40.7635463" height="3.33960525"></rect>
            <path d="M0.128645422,5.85536528 L7.03934038,5.85536528 C10.2452395,5.85536528 12.5620507,6.33368938 13.9898435,7.29035192 C15.4176363,8.24701446 16.131522,9.75808375 16.131522,11.8236051 C16.131522,13.2151143 15.7812138,14.372876 15.0805868,15.2969251 C14.3799599,16.2209741 13.3714968,16.8025727 12.0551674,17.0417384 L12.0551674,17.204805 C13.6899636,17.5200688 14.8921577,18.1424337 15.6617858,19.0719183 C16.4314139,20.0014029 16.8162222,21.2597214 16.8162222,22.8469115 C16.8162222,24.9885311 16.0864134,26.6653832 14.6267739,27.8775181 C13.1671344,29.089653 11.136939,29.6957114 8.53612684,29.6957114 L0.128645422,29.6957114 L0.128645422,5.85536528 Z M3.93430462,15.7045917 L7.59665448,15.7045917 C9.18898847,15.7045917 10.3513748,15.4464054 11.0838485,14.9300251 C11.8163221,14.4136447 12.1825534,13.5358113 12.1825534,12.2964985 C12.1825534,11.1767684 11.7871298,10.3668788 10.9962706,9.86680519 C10.2054113,9.36673159 8.95014021,9.11669854 7.2304195,9.11669854 L3.93430462,9.11669854 L3.93430462,15.7045917 Z M3.93430462,18.868085 L3.93430462,26.4180715 L7.97881273,26.4180715 C9.57114672,26.4180715 10.7733408,26.1055302 11.5854312,25.4804382 C12.3975215,24.8553462 12.8035606,23.8688027 12.8035606,22.5207782 C12.8035606,21.2814654 12.38956,20.3628657 11.5615463,19.7649516 C10.7335326,19.1670375 9.47560763,18.868085 7.78773361,18.868085 L3.93430462,18.868085 Z M34.8254295,29.6957114 L21.6568933,29.6957114 L21.6568933,5.85536528 L34.8254295,5.85536528 L34.8254295,9.14931187 L25.4625525,9.14931187 L25.4625525,15.6393651 L34.2362689,15.6393651 L34.2362689,18.9006983 L25.4625525,18.9006983 L25.4625525,26.3854581 L34.8254295,26.3854581 L34.8254295,29.6957114 Z M58.2166989,29.6957114 L54.3951164,29.6957114 L54.3951164,18.9496183 L43.662839,18.9496183 L43.662839,29.6957114 L39.8571798,29.6957114 L39.8571798,5.85536528 L43.662839,5.85536528 L43.662839,15.6067517 L54.3951164,15.6067517 L54.3951164,5.85536528 L58.2166989,5.85536528 L58.2166989,29.6957114 Z M64.3471541,29.6957114 L64.3471541,5.85536528 L68.1528133,5.85536528 L68.1528133,29.6957114 L64.3471541,29.6957114 Z M93.6937227,29.6957114 L89.0282075,29.6957114 L77.5793833,10.6984452 L77.4519972,10.6984452 L77.5316135,11.7583785 C77.6802314,13.7804152 77.7545392,15.6284856 77.7545392,17.302645 L77.7545392,29.6957114 L74.2991917,29.6957114 L74.2991917,5.85536528 L78.9169372,5.85536528 L90.3339148,24.7547915 L90.4294544,24.7547915 C90.4082232,24.5047547 90.3657616,23.5943083 90.3020683,22.0234249 C90.2383749,20.4525415 90.2065287,19.226836 90.2065287,18.3462717 L90.2065287,5.85536528 L93.6937227,5.85536528 L93.6937227,29.6957114 Z M118.772858,17.547245 C118.772858,21.4826068 117.70601,24.4911567 115.572282,26.5729848 C113.438555,28.6548129 110.365396,29.6957114 106.352715,29.6957114 L99.8401012,29.6957114 L99.8401012,5.85536528 L107.037415,5.85536528 C110.742245,5.85536528 113.624327,6.87723949 115.683745,8.92101855 C117.743164,10.9647976 118.772858,13.8401777 118.772858,17.547245 L118.772858,17.547245 Z M114.760196,17.6776983 C114.760196,11.9703366 112.154115,9.11669854 106.941875,9.11669854 L103.64576,9.11669854 L103.64576,26.4180715 L106.352715,26.4180715 C111.95773,26.4180715 114.760196,23.5046429 114.760196,17.6776983 L114.760196,17.6776983 Z" id="BEHIND-Copy" sketch:type="MSShapeGroup"></path>
            <path d="M192.169533,9.19823187 C189.982728,9.19823187 188.263033,9.99181503 187.010397,11.5790051 C185.757761,13.1661953 185.131452,15.3567022 185.131452,18.1505917 C185.131452,21.0749351 185.733876,23.287184 186.938742,24.7874048 C188.143609,26.2876256 189.887188,27.0377248 192.169533,27.0377248 C193.156781,27.0377248 194.112167,26.937168 195.03572,26.7360515 C195.959274,26.5349349 196.919968,26.2767486 197.91783,25.9614848 L197.91783,29.3043514 C196.091954,30.0109771 194.021951,30.3642847 191.707759,30.3642847 C188.300164,30.3642847 185.683468,29.3070797 183.857592,27.1926381 C182.031715,25.0781965 181.118791,22.0533401 181.118791,18.1179783 C181.118791,15.6393527 181.561984,13.4705877 182.448383,11.6116185 C183.334782,9.75264923 184.616592,8.32854795 186.29385,7.33927192 C187.971109,6.34999588 189.940266,5.85536528 192.20138,5.85536528 C194.579265,5.85536528 196.776653,6.36630239 198.79361,7.38819192 L197.424209,10.6332185 C196.638658,10.2527277 195.808003,9.91844441 194.932219,9.63035853 C194.056435,9.34227265 193.135549,9.19823187 192.169533,9.19823187 L192.169533,9.19823187 Z M221.181714,6.19780528 L221.181714,21.6239116 C221.181714,23.3850403 220.812828,24.9260049 220.075047,26.2468515 C219.337266,27.567698 218.270418,28.5841367 216.874472,29.2961981 C215.478526,30.0082594 213.809254,30.3642847 211.866606,30.3642847 C208.979174,30.3642847 206.734017,29.5815725 205.131067,28.0161248 C203.528118,26.450677 202.726655,24.2982185 202.726655,21.5586849 L202.726655,6.19780528 L206.548237,6.19780528 L206.548237,21.2814716 C206.548237,23.2491525 206.994084,24.7004313 207.885791,25.6353515 C208.777498,26.5702717 210.146885,27.0377248 211.993992,27.0377248 C215.582052,27.0377248 217.376054,25.1081219 217.376054,21.2488583 L217.376054,6.19780528 L221.181714,6.19780528 Z M230.942672,17.2863383 L233.585933,17.2863383 C235.358732,17.2863383 236.643195,16.9493373 237.439362,16.275325 C238.235529,15.6013128 238.633607,14.6011806 238.633607,13.2748984 C238.633607,11.926874 238.203683,10.9593548 237.343823,10.3723118 C236.483962,9.78526892 235.188884,9.49175186 233.458547,9.49175186 L230.942672,9.49175186 L230.942672,17.2863383 Z M230.942672,20.5150583 L230.942672,30.0381514 L227.137013,30.0381514 L227.137013,6.19780528 L233.713319,6.19780528 C236.717523,6.19780528 238.941449,6.77396839 240.385166,7.9263119 C241.828882,9.07865541 242.550729,10.8180158 242.550729,13.1444451 C242.550729,16.1122732 241.043342,18.2266831 238.028523,19.4877383 L244.60483,30.0381514 L240.273703,30.0381514 L234.700562,20.5150583 L230.942672,20.5150583 Z M256.021807,30.0381514 L252.216148,30.0381514 L252.216148,9.54067186 L245.369146,9.54067186 L245.369146,6.19780528 L262.868809,6.19780528 L262.868809,9.54067186 L256.021807,9.54067186 L256.021807,30.0381514 Z M278.60099,30.0381514 L276.276194,23.4176449 L267.375092,23.4176449 L265.098065,30.0381514 L261.085404,30.0381514 L269.795427,6.09996528 L273.935475,6.09996528 L282.645498,30.0381514 L278.60099,30.0381514 Z M275.273029,20.0584716 L273.091542,13.5684184 C272.932309,13.1335718 272.712039,12.4486987 272.430727,11.5137785 C272.149414,10.5788583 271.955683,9.89398514 271.849528,9.45913853 C271.562908,10.7962919 271.143599,12.2584416 270.59159,13.8456318 L268.48972,20.0584716 L275.273029,20.0584716 Z M285.718688,30.0381514 L285.718688,6.19780528 L289.524347,6.19780528 L289.524347,30.0381514 L285.718688,30.0381514 Z M315.065256,30.0381514 L310.399741,30.0381514 L298.950917,11.0408852 L298.823531,11.0408852 L298.903147,12.1008185 C299.051765,14.1228552 299.126073,15.9709256 299.126073,17.645085 L299.126073,30.0381514 L295.670725,30.0381514 L295.670725,6.19780528 L300.288471,6.19780528 L311.705448,25.0972315 L311.800988,25.0972315 C311.779757,24.8471947 311.737295,23.9367483 311.673602,22.3658649 C311.609908,20.7949815 311.578062,19.569276 311.578062,18.6887116 L311.578062,6.19780528 L315.065256,6.19780528 L315.065256,30.0381514 Z" id="CURTAIN-Copy" sketch:type="MSShapeGroup"></path>
            <path d="M136.092588,21.5678569 C136.512964,21.5678569 136.919003,21.5360592 137.310717,21.4724629 C137.702431,21.4088665 138.012932,21.3428252 138.242228,21.2743369 L138.242228,23.1381888 C137.98427,23.2653815 137.604504,23.3705584 137.102919,23.4537228 C136.601333,23.5368872 136.149914,23.5784688 135.748645,23.5784688 C132.710472,23.5784688 131.191408,21.9396652 131.191408,18.6620089 L131.191408,9.09325716 L128.941452,9.09325716 L128.941452,7.91917719 L131.191408,6.90653321 L132.194574,3.47234929 L133.570343,3.47234929 L133.570343,7.2000532 L138.12758,7.2000532 L138.12758,9.09325716 L133.570343,9.09325716 L133.570343,18.5592769 C133.570343,19.5278978 133.794859,20.2714743 134.243897,20.7900289 C134.692935,21.3085835 135.309159,21.5678569 136.092588,21.5678569 L136.092588,21.5678569 Z M152.128903,23.2849488 L152.128903,12.8796651 C152.128903,11.5686025 151.83751,10.5902124 151.254716,9.94446514 C150.671922,9.29871793 149.759528,8.97584916 148.517508,8.97584916 C146.864665,8.97584916 145.65849,9.43569255 144.898947,10.3553931 C144.139404,11.2750937 143.759638,12.7818146 143.759638,14.875601 L143.759638,23.2849488 L141.380703,23.2849488 L141.380703,0.449093364 L143.759638,0.449093364 L143.759638,7.3614892 C143.759638,8.19313334 143.721422,8.88289842 143.64499,9.43080515 L143.788299,9.43080515 C144.256446,8.6578653 144.922827,8.04881741 145.787465,7.60364319 C146.652102,7.15846898 147.638538,6.93588521 148.746803,6.93588521 C150.667158,6.93588521 152.107402,7.40306653 153.067579,8.33744318 C154.027757,9.27181983 154.507838,10.7565269 154.507838,12.7916091 L154.507838,23.2849488 L152.128903,23.2849488 Z M166.029909,23.5784688 C163.708286,23.5784688 161.876334,22.8544601 160.533996,21.4064209 C159.191659,19.9583817 158.5205,17.9477898 158.5205,15.374585 C158.5205,12.7818121 159.143889,10.7223008 160.390687,9.19598916 C161.637484,7.66967756 163.311798,6.90653321 165.413679,6.90653321 C167.381804,6.90653321 168.939083,7.56939257 170.085564,8.89513116 C171.232044,10.2208698 171.805276,11.9697422 171.805276,14.141801 L171.805276,15.682781 L160.985421,15.682781 C161.033191,17.5711024 161.498941,19.004444 162.382687,19.9828489 C163.266432,20.9612538 164.510822,21.4504489 166.115895,21.4504489 C167.806954,21.4504489 169.478879,21.0884445 171.131722,20.3644249 L171.131722,22.5364728 C170.29097,22.9082667 169.495611,23.174878 168.745621,23.3363148 C167.995632,23.4977516 167.090404,23.5784688 166.029909,23.5784688 L166.029909,23.5784688 Z M165.385017,8.94649716 C164.123889,8.94649716 163.118345,9.36720495 162.368356,10.2086331 C161.618366,11.0500613 161.1765,12.2143456 161.042744,13.701521 L169.25437,13.701521 C169.25437,12.1654254 168.919985,10.9889112 168.251204,10.1719431 C167.582424,9.35497507 166.627038,8.94649716 165.385017,8.94649716 L165.385017,8.94649716 Z" id="the-copy" sketch:type="MSShapeGroup"></path>
        </g>
    </g>
</svg>